<svg class="logo" version="1.1" viewBox="0 0 138 49" fill="black" style="display: block;">
    <polygon points="0 6.5 8.5 13 17 6.5 8.5 0"></polygon>
    <polygon points="35 20.5 26.5 14 18 20.5 26.5 27"></polygon>
    <polygon points="35 35.5 26.5 29 18 35.5 26.5 42"></polygon>
    <polygon points="18 35 26 28.5 18 22"></polygon>
    <polygon points="0 20 8 13.5 0 7"></polygon>
    <polygon points="35 20 35 7 27 13.5"></polygon>
    <polygon points="35 6.5 26.5 0 18 6.5 26.5 13"></polygon>
    <polygon points="10 0 18 6 26 0"></polygon>
    <polygon points="35 36 27 42.5 35 49"></polygon>
</svg>